solid OpenSCAD_Model
  facet normal 0 0 1
    outer loop
      vertex -23.75 -34.25 3.25
      vertex 23.75 -34.25 3.25
      vertex 23.75 34.25 3.25
    endloop
  endfacet
  facet normal 0 -0 1
    outer loop
      vertex -23.75 34.25 3.25
      vertex -23.75 -34.25 3.25
      vertex 23.75 34.25 3.25
    endloop
  endfacet
  facet normal 0 -0.933346 0.358979
    outer loop
      vertex -25 -35.5 0
      vertex 25 -35.5 0
      vertex 23.75 -34.25 3.25
    endloop
  endfacet
  facet normal 0 -0.933346 0.358979
    outer loop
      vertex -23.75 -34.25 3.25
      vertex -25 -35.5 0
      vertex 23.75 -34.25 3.25
    endloop
  endfacet
  facet normal -0.933346 0 0.358979
    outer loop
      vertex -23.75 -34.25 3.25
      vertex -23.75 34.25 3.25
      vertex -25 -35.5 0
    endloop
  endfacet
  facet normal -0.933346 0 0.358979
    outer loop
      vertex -25 -35.5 0
      vertex -23.75 34.25 3.25
      vertex -25 35.5 0
    endloop
  endfacet
  facet normal 0 0.933346 0.358979
    outer loop
      vertex -23.75 34.25 3.25
      vertex 23.75 34.25 3.25
      vertex -25 35.5 0
    endloop
  endfacet
  facet normal 0 0.933346 0.358979
    outer loop
      vertex -25 35.5 0
      vertex 23.75 34.25 3.25
      vertex 25 35.5 0
    endloop
  endfacet
  facet normal 0.933346 0 0.358979
    outer loop
      vertex 23.75 -34.25 3.25
      vertex 25 -35.5 0
      vertex 25 35.5 0
    endloop
  endfacet
  facet normal 0.933346 -0 0.358979
    outer loop
      vertex 23.75 34.25 3.25
      vertex 23.75 -34.25 3.25
      vertex 25 35.5 0
    endloop
  endfacet
  facet normal 0 0 -1
    outer loop
      vertex -25 35.5 0
      vertex 25 35.5 0
      vertex -25 -35.5 0
    endloop
  endfacet
  facet normal -0 0 -1
    outer loop
      vertex -25 -35.5 0
      vertex 25 35.5 0
      vertex 25 -35.5 0
    endloop
  endfacet
endsolid OpenSCAD_Model
