solid OpenSCAD_Model
  facet normal 0 0 1
    outer loop
      vertex -23.75 -35.75 3.5
      vertex 23.75 -35.75 3.5
      vertex 23.75 35.75 3.5
    endloop
  endfacet
  facet normal 0 -0 1
    outer loop
      vertex -23.75 35.75 3.5
      vertex -23.75 -35.75 3.5
      vertex 23.75 35.75 3.5
    endloop
  endfacet
  facet normal 0 -0.941742 0.336336
    outer loop
      vertex -24.75 -37 0
      vertex 24.75 -37 0
      vertex 23.75 -35.75 3.5
    endloop
  endfacet
  facet normal 0 -0.941742 0.336336
    outer loop
      vertex -23.75 -35.75 3.5
      vertex -24.75 -37 0
      vertex 23.75 -35.75 3.5
    endloop
  endfacet
  facet normal -0.961524 0 0.274721
    outer loop
      vertex -23.75 -35.75 3.5
      vertex -23.75 35.75 3.5
      vertex -24.75 -37 0
    endloop
  endfacet
  facet normal -0.961524 0 0.274721
    outer loop
      vertex -24.75 -37 0
      vertex -23.75 35.75 3.5
      vertex -24.75 37 0
    endloop
  endfacet
  facet normal 0 0.941742 0.336336
    outer loop
      vertex -23.75 35.75 3.5
      vertex 23.75 35.75 3.5
      vertex -24.75 37 0
    endloop
  endfacet
  facet normal 0 0.941742 0.336336
    outer loop
      vertex -24.75 37 0
      vertex 23.75 35.75 3.5
      vertex 24.75 37 0
    endloop
  endfacet
  facet normal 0.961524 0 0.274721
    outer loop
      vertex 23.75 -35.75 3.5
      vertex 24.75 -37 0
      vertex 24.75 37 0
    endloop
  endfacet
  facet normal 0.961524 -0 0.274721
    outer loop
      vertex 23.75 35.75 3.5
      vertex 23.75 -35.75 3.5
      vertex 24.75 37 0
    endloop
  endfacet
  facet normal 0 0 -1
    outer loop
      vertex -24.75 37 0
      vertex 24.75 37 0
      vertex -24.75 -37 0
    endloop
  endfacet
  facet normal -0 0 -1
    outer loop
      vertex -24.75 -37 0
      vertex 24.75 37 0
      vertex 24.75 -37 0
    endloop
  endfacet
endsolid OpenSCAD_Model
