solid OpenSCAD_Model
  facet normal 0 0 1
    outer loop
      vertex -23.5 -35.95 3.5
      vertex 23.5 -35.95 3.5
      vertex 23.5 35.95 3.5
    endloop
  endfacet
  facet normal 0 -0 1
    outer loop
      vertex -23.5 35.95 3.5
      vertex -23.5 -35.95 3.5
      vertex 23.5 35.95 3.5
    endloop
  endfacet
  facet normal 0 -0.941742 0.336336
    outer loop
      vertex -24.8 -37.2 0
      vertex 24.8 -37.2 0
      vertex 23.5 -35.95 3.5
    endloop
  endfacet
  facet normal 0 -0.941742 0.336336
    outer loop
      vertex -23.5 -35.95 3.5
      vertex -24.8 -37.2 0
      vertex 23.5 -35.95 3.5
    endloop
  endfacet
  facet normal -0.937425 0 0.348187
    outer loop
      vertex -23.5 -35.95 3.5
      vertex -23.5 35.95 3.5
      vertex -24.8 -37.2 0
    endloop
  endfacet
  facet normal -0.937425 0 0.348187
    outer loop
      vertex -24.8 -37.2 0
      vertex -23.5 35.95 3.5
      vertex -24.8 37.2 0
    endloop
  endfacet
  facet normal 0 0.941742 0.336336
    outer loop
      vertex -23.5 35.95 3.5
      vertex 23.5 35.95 3.5
      vertex -24.8 37.2 0
    endloop
  endfacet
  facet normal 0 0.941742 0.336336
    outer loop
      vertex -24.8 37.2 0
      vertex 23.5 35.95 3.5
      vertex 24.8 37.2 0
    endloop
  endfacet
  facet normal 0.937425 0 0.348187
    outer loop
      vertex 23.5 -35.95 3.5
      vertex 24.8 -37.2 0
      vertex 24.8 37.2 0
    endloop
  endfacet
  facet normal 0.937425 -0 0.348187
    outer loop
      vertex 23.5 35.95 3.5
      vertex 23.5 -35.95 3.5
      vertex 24.8 37.2 0
    endloop
  endfacet
  facet normal 0 0 -1
    outer loop
      vertex -24.8 37.2 0
      vertex 24.8 37.2 0
      vertex -24.8 -37.2 0
    endloop
  endfacet
  facet normal -0 0 -1
    outer loop
      vertex -24.8 -37.2 0
      vertex 24.8 37.2 0
      vertex 24.8 -37.2 0
    endloop
  endfacet
endsolid OpenSCAD_Model
